<?xml version="1.0" encoding="iso-8859-1"?>
<!-- Generator: Adobe Illustrator 19.0.0, SVG Export Plug-In . SVG Version: 6.00 Build 0)  -->
<svg version="1.1" xmlns="http://www.w3.org/2000/svg" xmlns:xlink="http://www.w3.org/1999/xlink" x="0px" y="0px"
	 viewBox="0 0 320.21 320.21" style="enable-background:new 0 0 320.21 320.21;" xml:space="preserve">
<g id="_x34_-point-star-pattern-3">
	<path d="M7.345,170.654l98.951,36.615c3.079,1.139,5.506,3.566,6.645,6.645l36.615,98.951c3.624,9.793,17.474,9.793,21.098,0
		l36.615-98.951c1.139-3.079,3.567-5.506,6.646-6.645l98.951-36.615c9.793-3.624,9.793-17.474,0-21.098l-98.951-36.615
		c-3.079-1.139-5.506-3.566-6.646-6.645L170.654,7.345c-3.624-9.793-17.474-9.793-21.098,0l-36.615,98.951
		c-1.139,3.079-3.566,5.506-6.645,6.645L7.345,149.556C-2.448,153.18-2.448,167.03,7.345,170.654z"/>
</g>
<g id="Layer_1">
</g>
</svg>
